<?xml version="1.0" encoding="utf-8"?>
<!-- Generator: Adobe Illustrator 27.5.0, SVG Export Plug-In . SVG Version: 6.00 Build 0)  -->
<svg version="1.1" id="Layer_1" xmlns="http://www.w3.org/2000/svg" xmlns:xlink="http://www.w3.org/1999/xlink" x="0px" y="0px"
	 viewBox="0 0 1000 172.5" style="enable-background:new 0 0 1000 172.5;" xml:space="preserve">
<style type="text/css">
	.st0{display:none;}
	.st1{display:inline;}
	.st2{opacity:0.1;enable-background:new    ;}
	.st3{opacity:0.48;enable-background:new    ;}
	.st4{opacity:0.32;enable-background:new    ;}
	.st5{opacity:0.8;enable-background:new    ;}
	.st6{opacity:0.64;enable-background:new    ;}
</style>
<g id="Layer_2_00000111180676323588300410000002552769575823224465_" class="st0">
	<g id="Layer_1-2" class="st1">
		<g>
			<g>
				<path class="st2" d="M439.2,166.2h-21.5V2.9h21.5V166.2L439.2,166.2z"/>
				<rect x="476.8" y="2.9" class="st3" width="8.9" height="163.3"/>
				<rect x="539.8" y="2.9" width="8.9" height="163.3"/>
				<rect x="458.7" y="2.9" class="st4" width="9.9" height="163.3"/>
				<rect x="520" y="2.9" class="st5" width="11.2" height="163.3"/>
				<rect x="499" y="2.9" class="st6" width="15.3" height="163.3"/>
			</g>
			<path d="M0,166.2V2.9h113.8c10.2,0,18.9,2.1,26.3,6.4c7.4,4.3,13.1,10.2,17,17.6c4,7.5,6,16,6,25.5c0,9.7-2,18.3-6,25.7
				c-4,7.5-9.6,13.3-16.9,17.6c-7.3,4.3-16.1,6.4-26.4,6.4H21v64L0,166.2L0,166.2z M21,84h88.3c10.6,0,18.7-2.9,24.3-8.7
				c5.6-5.8,8.3-13.4,8.3-22.7c0-6.3-1.3-11.9-3.9-16.7c-2.6-4.8-6.4-8.5-11.2-11.2s-10.7-4-17.5-4H21V84L21,84z"/>
			<path d="M204.1,166.2V2.9h119.5c10.6,0,19.6,2.1,26.8,6.3c7.2,4.2,12.7,9.9,16.4,17.1c3.7,7.2,5.6,15.4,5.6,24.6
				c0,10.5-2.7,19.8-8.1,28S351.1,92.8,341,96.2l35.7,70h-23.8l-33.6-66.4H225v66.4H204.1L204.1,166.2z M225,81.9h94.5
				c9.8,0,17.5-2.9,23.1-8.7c5.6-5.8,8.3-13.1,8.3-22c0-6.2-1.2-11.5-3.7-16.1c-2.5-4.5-6-8.1-10.7-10.6s-10.4-3.8-17-3.8H225V81.9
				L225,81.9z"/>
			<path d="M675.4,169c-11.3,0-22.1-0.7-32.4-2c-10.3-1.3-19.5-3.8-27.5-7.3s-14.3-8.5-18.9-15c-4.6-6.5-6.9-14.8-6.9-25v-2.6
				c0-0.8,0.1-1.3,0.2-1.7h21c-0.2,0.8-0.3,1.7-0.4,2.9c-0.1,1.1-0.1,2.5-0.1,4.3c0,6.2,2.6,11.4,7.7,15.7
				c5.2,4.3,12.6,7.5,22.3,9.6s21.2,3.2,34.5,3.2c6.3,0,12.5-0.3,18.6-1c6-0.6,11.7-1.6,16.9-3c5.2-1.3,9.8-3.1,13.7-5.4
				c3.9-2.2,7-5,9.3-8.2c2.3-3.3,3.5-7,3.5-11.3c0-5.9-2-10.6-6-14.3c-4-3.7-9.3-6.6-16.1-8.8c-6.7-2.2-14.4-4-22.9-5.5
				c-8.5-1.4-17.2-2.8-26.1-4.2c-8.9-1.3-17.5-3.1-26-5.1c-8.4-2.1-16-4.7-22.7-8S605,68.8,601,63.4c-4-5.3-6-12-6-20.1
				c0-6,1.4-11.7,4.3-16.9c2.9-5.2,7.5-9.9,13.8-13.9s14.6-7.2,24.9-9.4c10.4-2,22.8-3.1,37.4-3.1c14.9,0,27.3,1.3,37.1,3.8
				s17.6,6,23.3,10.2c5.7,4.3,9.7,9,12,14.2s3.5,10.3,3.5,15.4v4.8h-20.7v-5c0-4.4-2-8.6-6.1-12.5c-4-3.9-10-7-18-9.4
				c-7.9-2.4-17.7-3.6-29.3-3.6c-13.3,0-24.5,1-33.5,2.9s-15.7,4.7-20.2,8.5c-4.5,3.7-6.8,8.3-6.8,13.7c0,5.1,1.9,9.2,5.8,12.5
				c3.9,3.3,9.2,5.9,16.1,7.9c6.8,2,14.4,3.7,22.9,5.1c8.4,1.4,17.1,2.9,26,4.3s17.5,3.2,26,5.2c8.4,2.1,16,4.8,22.9,8.2
				c6.8,3.4,12.2,7.9,16.1,13.3c3.9,5.5,5.8,12.2,5.8,20.1c0,12.2-3.5,22-10.5,29.3c-7,7.3-16.7,12.5-29.2,15.6
				C706.2,167.5,691.8,169,675.4,169L675.4,169z"/>
			<path d="M799.3,166.2V2.9h31.2l55.2,110.9c1.1,2.1,2.5,4.9,4.2,8.5s3.3,7.2,4.9,10.8c1.6,3.7,3,6.9,4.3,9.8h1.4
				c1.1-2.5,2.4-5.5,3.9-8.9s3.1-6.9,4.8-10.5s3.1-6.6,4.4-9.2L968.8,2.9h31.2v163.3h-21.2V58.6c0-2.9,0-6.2,0.1-10.1
				s0.2-7.7,0.2-11.5c0.1-3.8,0.1-7.1,0.1-9.8h-1.7c-1,2.1-2.1,4.5-3.3,7.4c-1.3,2.9-2.6,5.8-3.9,8.8c-1.3,3-2.6,5.6-3.7,7.9
				l-56.9,115h-21l-57.1-115c-1.4-2.9-2.8-5.8-4.2-8.9c-1.4-3.1-2.6-6-3.8-8.6s-2.2-4.8-3-6.5h-1.7c0,2.5,0,5.7,0.1,9.5
				s0.2,7.6,0.2,11.4c0.1,3.8,0.1,7.3,0.1,10.5v107.6L799.3,166.2L799.3,166.2z"/>
		</g>
	</g>
</g>
<g id="Layer_3">
	<path d="M439.6,166.2H418V2.8h21.5v163.4H439.6z"/>
	<rect x="477.1" y="2.8" width="8.9" height="163.3"/>
	<rect x="540.2" y="2.8" width="8.9" height="163.3"/>
	<rect x="459.1" y="2.8" width="9.9" height="163.3"/>
	<rect x="520.3" y="2.8" width="11.2" height="163.3"/>
	<rect x="499.3" y="2.8" width="15.3" height="163.3"/>
	<path d="M0.3,166.2V2.8h113.8c10.2,0,18.9,2.1,26.3,6.4c7.4,4.3,13.1,10.2,17,17.6c4,7.5,6,16,6,25.5c0,9.7-2,18.3-6,25.7
		c-4,7.5-9.6,13.3-16.9,17.6c-7.3,4.3-16.1,6.4-26.4,6.4H21.3v64L0.3,166.2L0.3,166.2z M21.3,84h88.3c10.6,0,18.7-2.9,24.3-8.7
		c5.6-5.8,8.3-13.4,8.3-22.7c0-6.3-1.3-11.9-3.9-16.7c-2.6-4.8-6.4-8.5-11.2-11.2s-10.7-4-17.5-4H21.3V84L21.3,84z"/>
	<path d="M204.4,166.2V2.8H324c10.6,0,19.6,2.1,26.8,6.3c7.2,4.2,12.7,9.9,16.4,17.1c3.7,7.2,5.6,15.4,5.6,24.6
		c0,10.5-2.7,19.8-8.1,28s-13.2,13.9-23.3,17.3l35.7,70h-23.8l-33.6-66.4h-94.3v66.4L204.4,166.2L204.4,166.2z M225.4,81.9h94.5
		c9.8,0,17.5-2.9,23.1-8.7c5.6-5.8,8.3-13.1,8.3-22c0-6.2-1.2-11.5-3.7-16.1c-2.5-4.5-6-8.1-10.7-10.6s-10.4-3.8-17-3.8h-94.5
		L225.4,81.9L225.4,81.9z"/>
	<path d="M675.8,169c-11.3,0-22.1-0.7-32.4-2c-10.3-1.3-19.5-3.8-27.5-7.3s-14.3-8.5-18.9-15c-4.6-6.5-6.9-14.8-6.9-25v-2.6
		c0-0.8,0.1-1.3,0.2-1.7h21c-0.2,0.8-0.3,1.7-0.4,2.9c-0.1,1.1-0.1,2.5-0.1,4.3c0,6.2,2.6,11.4,7.7,15.7c5.2,4.3,12.6,7.5,22.3,9.6
		s21.2,3.2,34.5,3.2c6.3,0,12.5-0.3,18.6-1c6-0.6,11.7-1.6,16.9-3c5.2-1.3,9.8-3.1,13.7-5.4c3.9-2.2,7-5,9.3-8.2
		c2.3-3.3,3.5-7,3.5-11.3c0-5.9-2-10.6-6-14.3c-4-3.7-9.3-6.6-16.1-8.8c-6.7-2.2-14.4-4-22.9-5.5c-8.5-1.4-17.2-2.8-26.1-4.2
		c-8.9-1.3-17.5-3.1-26-5.1c-8.4-2.1-16-4.7-22.7-8s-12.1-7.5-16.1-12.9c-4-5.3-6-12-6-20.1c0-6,1.4-11.7,4.3-16.9
		c2.9-5.2,7.5-9.9,13.8-13.9s14.6-7.2,24.9-9.4c10.4-2,22.8-3.1,37.4-3.1c14.9,0,27.3,1.3,37.1,3.8s17.6,6,23.3,10.2
		c5.7,4.3,9.7,9,12,14.2s3.5,10.3,3.5,15.4v4.8H731v-5c0-4.4-2-8.6-6.1-12.5c-4-3.9-10-7-18-9.4c-7.9-2.4-17.7-3.6-29.3-3.6
		c-13.3,0-24.5,1-33.5,2.9s-15.7,4.7-20.2,8.5c-4.5,3.7-6.8,8.3-6.8,13.7c0,5.1,1.9,9.2,5.8,12.5c3.9,3.3,9.2,5.9,16.1,7.9
		c6.8,2,14.4,3.7,22.9,5.1c8.4,1.4,17.1,2.9,26,4.3s17.5,3.2,26,5.2c8.4,2.1,16,4.8,22.9,8.2c6.8,3.4,12.2,7.9,16.1,13.3
		c3.9,5.5,5.8,12.2,5.8,20.1c0,12.2-3.5,22-10.5,29.3c-7,7.3-16.7,12.5-29.2,15.6C706.5,167.5,692.1,169,675.8,169L675.8,169z"/>
	<path d="M799.6,166.2V2.8h31.2L886,113.7c1.1,2.1,2.5,4.9,4.2,8.5s3.3,7.2,4.9,10.8c1.6,3.7,3,6.9,4.3,9.8h1.4
		c1.1-2.5,2.4-5.5,3.9-8.9s3.1-6.9,4.8-10.5s3.1-6.6,4.4-9.2L969.2,2.8h31.2v163.3h-21.2V58.6c0-2.9,0-6.2,0.1-10.1
		s0.2-7.7,0.2-11.5c0.1-3.8,0.1-7.1,0.1-9.8H978c-1,2.1-2.1,4.5-3.3,7.4c-1.3,2.9-2.6,5.8-3.9,8.8c-1.3,3-2.6,5.6-3.7,7.9l-56.9,115
		h-21L832,51.2c-1.4-2.9-2.8-5.8-4.2-8.9s-2.6-6-3.8-8.6s-2.2-4.8-3-6.5h-1.7c0,2.5,0,5.7,0.1,9.5s0.2,7.6,0.2,11.4
		c0.1,3.8,0.1,7.3,0.1,10.5v107.6L799.6,166.2L799.6,166.2z"/>
</g>
</svg>
